<mxfile host="65bd71144e">
    <diagram id="85_3XC7o4PCkoGgGj8ya" name="Страница 1">
        <mxGraphModel dx="1068" dy="713" grid="1" gridSize="10" guides="1" tooltips="1" connect="1" arrows="1" fold="1" page="1" pageScale="1" pageWidth="827" pageHeight="1169" math="0" shadow="0">
            <root>
                <mxCell id="0"/>
                <mxCell id="1" parent="0"/>
                <mxCell id="4" value="" style="edgeStyle=none;html=1;" edge="1" parent="1" source="2" target="3">
                    <mxGeometry relative="1" as="geometry"/>
                </mxCell>
                <mxCell id="2" value="start" style="ellipse;whiteSpace=wrap;html=1;" vertex="1" parent="1">
                    <mxGeometry x="310" y="320" width="120" height="80" as="geometry"/>
                </mxCell>
                <mxCell id="6" value="" style="edgeStyle=none;html=1;" edge="1" parent="1" source="3" target="5">
                    <mxGeometry relative="1" as="geometry"/>
                </mxCell>
                <mxCell id="3" value="&lt;div style=&quot;color: rgb(212 , 212 , 212) ; background-color: rgb(30 , 30 , 30) ; font-family: &amp;#34;consolas&amp;#34; , &amp;#34;courier new&amp;#34; , monospace ; font-size: 14px ; line-height: 19px&quot;&gt;&lt;span style=&quot;color: #9cdcfe&quot;&gt;sourceArray&lt;/span&gt;&lt;/div&gt;" style="shape=parallelogram;perimeter=parallelogramPerimeter;whiteSpace=wrap;html=1;fixedSize=1;" vertex="1" parent="1">
                    <mxGeometry x="310" y="430" width="120" height="60" as="geometry"/>
                </mxCell>
                <mxCell id="8" value="" style="edgeStyle=none;html=1;" edge="1" parent="1" source="5" target="7">
                    <mxGeometry relative="1" as="geometry"/>
                </mxCell>
                <mxCell id="5" value="&lt;div style=&quot;color: rgb(212 , 212 , 212) ; background-color: rgb(30 , 30 , 30) ; font-family: &amp;#34;consolas&amp;#34; , &amp;#34;courier new&amp;#34; , monospace ; font-size: 14px ; line-height: 19px&quot;&gt;&lt;span style=&quot;color: #9cdcfe&quot;&gt;count&lt;/span&gt; = &lt;span style=&quot;color: #b5cea8&quot;&gt;0&lt;/span&gt;;&lt;/div&gt;&lt;div style=&quot;color: rgb(212 , 212 , 212) ; background-color: rgb(30 , 30 , 30) ; font-family: &amp;#34;consolas&amp;#34; , &amp;#34;courier new&amp;#34; , monospace ; font-size: 14px ; line-height: 19px&quot;&gt;&lt;div style=&quot;line-height: 19px&quot;&gt;&lt;span style=&quot;color: #9cdcfe&quot;&gt;length&lt;/span&gt;=&lt;span style=&quot;color: #9cdcfe&quot;&gt;sourceArray&lt;/span&gt;.&lt;span style=&quot;color: #9cdcfe&quot;&gt;Length&lt;/span&gt;;&lt;/div&gt;&lt;/div&gt;" style="rounded=0;whiteSpace=wrap;html=1;" vertex="1" parent="1">
                    <mxGeometry x="260" y="515" width="220" height="70" as="geometry"/>
                </mxCell>
                <mxCell id="11" value="" style="edgeStyle=none;html=1;" edge="1" parent="1" source="7" target="10">
                    <mxGeometry relative="1" as="geometry"/>
                </mxCell>
                <mxCell id="20" value="" style="edgeStyle=orthogonalEdgeStyle;rounded=0;sketch=0;jumpStyle=sharp;html=1;strokeColor=default;" edge="1" parent="1" source="7" target="19">
                    <mxGeometry relative="1" as="geometry"/>
                </mxCell>
                <mxCell id="7" value="&lt;div style=&quot;background-color: rgb(30 , 30 , 30) ; font-family: &amp;#34;consolas&amp;#34; , &amp;#34;courier new&amp;#34; , monospace ; font-size: 14px ; line-height: 19px&quot;&gt;&lt;span style=&quot;color: rgb(156 , 220 , 254)&quot;&gt;i&lt;/span&gt;&lt;font color=&quot;#d4d4d4&quot;&gt;,&lt;/font&gt;&lt;span style=&quot;color: rgb(181 , 206 , 168)&quot;&gt;0,&lt;/span&gt;&lt;span style=&quot;color: rgb(156 , 220 , 254)&quot;&gt;length,&lt;/span&gt;&lt;font color=&quot;#d4d4d4&quot;&gt;1&lt;/font&gt;&lt;/div&gt;" style="shape=hexagon;perimeter=hexagonPerimeter2;whiteSpace=wrap;html=1;fixedSize=1;" vertex="1" parent="1">
                    <mxGeometry x="290" y="610" width="170" height="60" as="geometry"/>
                </mxCell>
                <mxCell id="13" value="" style="edgeStyle=none;html=1;" edge="1" parent="1" source="10" target="12">
                    <mxGeometry relative="1" as="geometry"/>
                </mxCell>
                <mxCell id="10" value="&lt;div style=&quot;color: rgb(212 , 212 , 212) ; background-color: rgb(30 , 30 , 30) ; font-family: &amp;#34;consolas&amp;#34; , &amp;#34;courier new&amp;#34; , monospace ; font-size: 14px ; line-height: 19px&quot;&gt;&lt;span style=&quot;color: #9cdcfe&quot;&gt;elementLength&lt;/span&gt;=&lt;span style=&quot;color: #9cdcfe&quot;&gt;sourceArray&lt;/span&gt;[&lt;span style=&quot;color: #9cdcfe&quot;&gt;i&lt;/span&gt;].&lt;span style=&quot;color: #9cdcfe&quot;&gt;Length&lt;/span&gt;;&lt;/div&gt;" style="rounded=0;whiteSpace=wrap;html=1;" vertex="1" parent="1">
                    <mxGeometry x="230" y="690" width="290" height="40" as="geometry"/>
                </mxCell>
                <mxCell id="15" value="" style="edgeStyle=none;html=1;" edge="1" parent="1" source="12" target="14">
                    <mxGeometry relative="1" as="geometry"/>
                </mxCell>
                <mxCell id="12" value="&lt;div style=&quot;color: rgb(212 , 212 , 212) ; background-color: rgb(30 , 30 , 30) ; font-family: &amp;#34;consolas&amp;#34; , &amp;#34;courier new&amp;#34; , monospace ; font-size: 14px ; line-height: 19px&quot;&gt;&lt;span style=&quot;color: #9cdcfe&quot;&gt;elementLength&lt;/span&gt; &amp;lt;= &lt;span style=&quot;color: #b5cea8&quot;&gt;3&lt;/span&gt;&lt;/div&gt;" style="rhombus;whiteSpace=wrap;html=1;" vertex="1" parent="1">
                    <mxGeometry x="280" y="750" width="180" height="80" as="geometry"/>
                </mxCell>
                <mxCell id="17" style="edgeStyle=orthogonalEdgeStyle;html=1;strokeColor=default;jumpStyle=sharp;rounded=0;sketch=0;entryX=0;entryY=0.5;entryDx=0;entryDy=0;" edge="1" parent="1" source="14" target="7">
                    <mxGeometry relative="1" as="geometry">
                        <mxPoint x="160" y="640" as="targetPoint"/>
                        <Array as="points">
                            <mxPoint x="590" y="920"/>
                            <mxPoint x="150" y="920"/>
                            <mxPoint x="150" y="640"/>
                        </Array>
                    </mxGeometry>
                </mxCell>
                <mxCell id="14" value="&lt;div style=&quot;color: rgb(212 , 212 , 212) ; background-color: rgb(30 , 30 , 30) ; font-family: &amp;#34;consolas&amp;#34; , &amp;#34;courier new&amp;#34; , monospace ; font-size: 14px ; line-height: 19px&quot;&gt;&lt;span style=&quot;color: #9cdcfe&quot;&gt;count&lt;/span&gt;++;&lt;/div&gt;" style="rounded=0;whiteSpace=wrap;html=1;" vertex="1" parent="1">
                    <mxGeometry x="500" y="770" width="120" height="40" as="geometry"/>
                </mxCell>
                <mxCell id="16" value="yes" style="text;html=1;align=center;verticalAlign=middle;resizable=0;points=[];autosize=1;strokeColor=none;fillColor=none;" vertex="1" parent="1">
                    <mxGeometry x="460" y="760" width="30" height="20" as="geometry"/>
                </mxCell>
                <mxCell id="22" value="" style="edgeStyle=orthogonalEdgeStyle;rounded=0;sketch=0;jumpStyle=sharp;html=1;strokeColor=default;" edge="1" parent="1" source="19" target="21">
                    <mxGeometry relative="1" as="geometry"/>
                </mxCell>
                <mxCell id="19" value="&lt;div style=&quot;color: rgb(212 , 212 , 212) ; background-color: rgb(30 , 30 , 30) ; font-family: &amp;#34;consolas&amp;#34; , &amp;#34;courier new&amp;#34; , monospace ; font-size: 14px ; line-height: 19px&quot;&gt;&lt;div&gt;&lt;span style=&quot;color: #c586c0&quot;&gt;return&lt;/span&gt; &lt;span style=&quot;color: #9cdcfe&quot;&gt;count&lt;/span&gt;&lt;/div&gt;&lt;/div&gt;" style="shape=parallelogram;perimeter=parallelogramPerimeter;whiteSpace=wrap;html=1;fixedSize=1;" vertex="1" parent="1">
                    <mxGeometry x="520" y="610" width="120" height="60" as="geometry"/>
                </mxCell>
                <mxCell id="21" value="end" style="ellipse;whiteSpace=wrap;html=1;" vertex="1" parent="1">
                    <mxGeometry x="670" y="610" width="120" height="80" as="geometry"/>
                </mxCell>
                <mxCell id="23" value="no" style="text;html=1;align=center;verticalAlign=middle;resizable=0;points=[];autosize=1;strokeColor=none;fillColor=none;" vertex="1" parent="1">
                    <mxGeometry x="465" y="610" width="30" height="20" as="geometry"/>
                </mxCell>
            </root>
        </mxGraphModel>
    </diagram>
    <diagram id="uY17_gVrIoBjOCI40mdq" name="Страница 2">
        <mxGraphModel dx="1068" dy="713" grid="1" gridSize="10" guides="1" tooltips="1" connect="1" arrows="1" fold="1" page="1" pageScale="1" pageWidth="827" pageHeight="1169" math="0" shadow="0">
            <root>
                <mxCell id="Tt6S_BPCqx_ux6isXb5D-0"/>
                <mxCell id="Tt6S_BPCqx_ux6isXb5D-1" parent="Tt6S_BPCqx_ux6isXb5D-0"/>
                <mxCell id="Tt6S_BPCqx_ux6isXb5D-4" value="" style="edgeStyle=orthogonalEdgeStyle;rounded=0;sketch=0;jumpStyle=sharp;html=1;strokeColor=default;" edge="1" parent="Tt6S_BPCqx_ux6isXb5D-1" source="Tt6S_BPCqx_ux6isXb5D-2" target="Tt6S_BPCqx_ux6isXb5D-3">
                    <mxGeometry relative="1" as="geometry"/>
                </mxCell>
                <mxCell id="Tt6S_BPCqx_ux6isXb5D-2" value="start" style="ellipse;whiteSpace=wrap;html=1;" vertex="1" parent="Tt6S_BPCqx_ux6isXb5D-1">
                    <mxGeometry x="300" y="20" width="120" height="80" as="geometry"/>
                </mxCell>
                <mxCell id="IsVx7k5mQMef7F9UXZFF-1" value="" style="edgeStyle=orthogonalEdgeStyle;rounded=0;sketch=0;jumpStyle=sharp;html=1;strokeColor=default;" edge="1" parent="Tt6S_BPCqx_ux6isXb5D-1" source="Tt6S_BPCqx_ux6isXb5D-3" target="IsVx7k5mQMef7F9UXZFF-0">
                    <mxGeometry relative="1" as="geometry"/>
                </mxCell>
                <mxCell id="Tt6S_BPCqx_ux6isXb5D-3" value="&lt;div style=&quot;color: rgb(212 , 212 , 212) ; background-color: rgb(30 , 30 , 30) ; font-family: &amp;#34;consolas&amp;#34; , &amp;#34;courier new&amp;#34; , monospace ; font-size: 14px ; line-height: 19px&quot;&gt;&lt;span style=&quot;color: #9cdcfe&quot;&gt;size&lt;/span&gt;,&lt;span style=&quot;color: #9cdcfe&quot;&gt;currentArray&lt;/span&gt;&lt;/div&gt;" style="shape=parallelogram;perimeter=parallelogramPerimeter;whiteSpace=wrap;html=1;fixedSize=1;" vertex="1" parent="Tt6S_BPCqx_ux6isXb5D-1">
                    <mxGeometry x="260" y="120" width="200" height="60" as="geometry"/>
                </mxCell>
                <mxCell id="zJuVTmcdBJW-nUZaUrIc-1" value="" style="edgeStyle=orthogonalEdgeStyle;rounded=0;sketch=0;jumpStyle=sharp;html=1;strokeColor=default;" edge="1" parent="Tt6S_BPCqx_ux6isXb5D-1" source="IsVx7k5mQMef7F9UXZFF-0" target="zJuVTmcdBJW-nUZaUrIc-0">
                    <mxGeometry relative="1" as="geometry"/>
                </mxCell>
                <mxCell id="IsVx7k5mQMef7F9UXZFF-0" value="&lt;div style=&quot;color: rgb(212 , 212 , 212) ; background-color: rgb(30 , 30 , 30) ; font-family: &amp;#34;consolas&amp;#34; , &amp;#34;courier new&amp;#34; , monospace ; font-size: 14px ; line-height: 19px&quot;&gt;&lt;div&gt;&lt;span style=&quot;color: #9cdcfe&quot;&gt;searchableArray&lt;/span&gt; = &lt;span style=&quot;color: #569cd6&quot;&gt;new&lt;/span&gt; &lt;span style=&quot;color: #569cd6&quot;&gt;string&lt;/span&gt;[&lt;span style=&quot;color: #9cdcfe&quot;&gt;size&lt;/span&gt;];&lt;/div&gt;&lt;div&gt;&amp;nbsp; &amp;nbsp; &amp;nbsp;&amp;nbsp;&lt;span style=&quot;color: #9cdcfe&quot;&gt;index&lt;/span&gt;=&lt;span style=&quot;color: #b5cea8&quot;&gt;0&lt;/span&gt;;&lt;/div&gt;&lt;div&gt;&amp;nbsp; &amp;nbsp; &amp;nbsp;&amp;nbsp;&lt;span style=&quot;color: #9cdcfe&quot;&gt;length&lt;/span&gt;=&lt;span style=&quot;color: #9cdcfe&quot;&gt;currentArray&lt;/span&gt;.&lt;span style=&quot;color: #9cdcfe&quot;&gt;Length&lt;/span&gt;;&lt;/div&gt;&lt;/div&gt;" style="rounded=0;whiteSpace=wrap;html=1;" vertex="1" parent="Tt6S_BPCqx_ux6isXb5D-1">
                    <mxGeometry x="220" y="200" width="280" height="70" as="geometry"/>
                </mxCell>
                <mxCell id="csNZ4v3LROHq9j_BPD8I-1" value="" style="edgeStyle=orthogonalEdgeStyle;rounded=0;sketch=0;jumpStyle=sharp;html=1;strokeColor=default;" edge="1" parent="Tt6S_BPCqx_ux6isXb5D-1" source="zJuVTmcdBJW-nUZaUrIc-0" target="csNZ4v3LROHq9j_BPD8I-0">
                    <mxGeometry relative="1" as="geometry"/>
                </mxCell>
                <mxCell id="csNZ4v3LROHq9j_BPD8I-11" value="" style="edgeStyle=orthogonalEdgeStyle;rounded=0;sketch=0;jumpStyle=sharp;html=1;strokeColor=default;" edge="1" parent="Tt6S_BPCqx_ux6isXb5D-1" source="zJuVTmcdBJW-nUZaUrIc-0" target="csNZ4v3LROHq9j_BPD8I-8">
                    <mxGeometry relative="1" as="geometry"/>
                </mxCell>
                <mxCell id="zJuVTmcdBJW-nUZaUrIc-0" value="&lt;div style=&quot;background-color: rgb(30 , 30 , 30) ; font-family: &amp;#34;consolas&amp;#34; , &amp;#34;courier new&amp;#34; , monospace ; font-size: 14px ; line-height: 19px&quot;&gt;&lt;span style=&quot;color: rgb(156 , 220 , 254)&quot;&gt;i&lt;/span&gt;&lt;font color=&quot;#d4d4d4&quot;&gt;,&lt;/font&gt;&lt;span style=&quot;color: rgb(181 , 206 , 168)&quot;&gt;0,&lt;/span&gt;&lt;span style=&quot;color: rgb(156 , 220 , 254)&quot;&gt;length,&lt;/span&gt;&lt;font color=&quot;#d4d4d4&quot;&gt;1&lt;/font&gt;&lt;/div&gt;" style="shape=hexagon;perimeter=hexagonPerimeter2;whiteSpace=wrap;html=1;fixedSize=1;" vertex="1" parent="Tt6S_BPCqx_ux6isXb5D-1">
                    <mxGeometry x="275" y="300" width="170" height="60" as="geometry"/>
                </mxCell>
                <mxCell id="csNZ4v3LROHq9j_BPD8I-3" value="" style="edgeStyle=orthogonalEdgeStyle;rounded=0;sketch=0;jumpStyle=sharp;html=1;strokeColor=default;" edge="1" parent="Tt6S_BPCqx_ux6isXb5D-1" source="csNZ4v3LROHq9j_BPD8I-0" target="csNZ4v3LROHq9j_BPD8I-2">
                    <mxGeometry relative="1" as="geometry"/>
                </mxCell>
                <mxCell id="csNZ4v3LROHq9j_BPD8I-0" value="&lt;div style=&quot;color: rgb(212 , 212 , 212) ; background-color: rgb(30 , 30 , 30) ; font-family: &amp;#34;consolas&amp;#34; , &amp;#34;courier new&amp;#34; , monospace ; font-size: 14px ; line-height: 19px&quot;&gt;&lt;span style=&quot;color: #9cdcfe&quot;&gt;lengthItem&lt;/span&gt;=&lt;span style=&quot;color: #9cdcfe&quot;&gt;currentArray&lt;/span&gt;[&lt;span style=&quot;color: #9cdcfe&quot;&gt;i&lt;/span&gt;].&lt;span style=&quot;color: #9cdcfe&quot;&gt;Length&lt;/span&gt;&lt;/div&gt;" style="rounded=0;whiteSpace=wrap;html=1;" vertex="1" parent="Tt6S_BPCqx_ux6isXb5D-1">
                    <mxGeometry x="230" y="380" width="260" height="40" as="geometry"/>
                </mxCell>
                <mxCell id="csNZ4v3LROHq9j_BPD8I-5" value="" style="edgeStyle=orthogonalEdgeStyle;rounded=0;sketch=0;jumpStyle=sharp;html=1;strokeColor=default;" edge="1" parent="Tt6S_BPCqx_ux6isXb5D-1" source="csNZ4v3LROHq9j_BPD8I-2" target="csNZ4v3LROHq9j_BPD8I-4">
                    <mxGeometry relative="1" as="geometry"/>
                </mxCell>
                <mxCell id="csNZ4v3LROHq9j_BPD8I-2" value="&lt;div style=&quot;color: rgb(212 , 212 , 212) ; background-color: rgb(30 , 30 , 30) ; font-family: &amp;#34;consolas&amp;#34; , &amp;#34;courier new&amp;#34; , monospace ; font-size: 14px ; line-height: 19px&quot;&gt;&lt;span style=&quot;color: #9cdcfe&quot;&gt;lengthItem&lt;/span&gt; &amp;lt;= &lt;span style=&quot;color: #b5cea8&quot;&gt;3&lt;/span&gt;&lt;/div&gt;" style="rhombus;whiteSpace=wrap;html=1;" vertex="1" parent="Tt6S_BPCqx_ux6isXb5D-1">
                    <mxGeometry x="240" y="440" width="180" height="70" as="geometry"/>
                </mxCell>
                <mxCell id="csNZ4v3LROHq9j_BPD8I-7" style="edgeStyle=orthogonalEdgeStyle;rounded=0;sketch=0;jumpStyle=sharp;html=1;strokeColor=default;entryX=0;entryY=0.5;entryDx=0;entryDy=0;" edge="1" parent="Tt6S_BPCqx_ux6isXb5D-1" source="csNZ4v3LROHq9j_BPD8I-4" target="zJuVTmcdBJW-nUZaUrIc-0">
                    <mxGeometry relative="1" as="geometry">
                        <mxPoint x="150" y="330" as="targetPoint"/>
                        <Array as="points">
                            <mxPoint x="640" y="590"/>
                            <mxPoint x="140" y="590"/>
                            <mxPoint x="140" y="330"/>
                        </Array>
                    </mxGeometry>
                </mxCell>
                <mxCell id="csNZ4v3LROHq9j_BPD8I-4" value="&lt;div style=&quot;color: rgb(212 , 212 , 212) ; background-color: rgb(30 , 30 , 30) ; font-family: &amp;#34;consolas&amp;#34; , &amp;#34;courier new&amp;#34; , monospace ; font-size: 14px ; line-height: 19px&quot;&gt;&lt;div&gt;&lt;span style=&quot;color: #9cdcfe&quot;&gt;searchableArray&lt;/span&gt;[&lt;span style=&quot;color: #9cdcfe&quot;&gt;index&lt;/span&gt;] = &lt;span style=&quot;color: #9cdcfe&quot;&gt;currentArray&lt;/span&gt;[&lt;span style=&quot;color: #9cdcfe&quot;&gt;i&lt;/span&gt;];&amp;nbsp; &amp;nbsp; &amp;nbsp; &amp;nbsp; &amp;nbsp; &amp;nbsp; &amp;nbsp; &amp;nbsp;&lt;span style=&quot;color: rgb(156 , 220 , 254)&quot;&gt;index&lt;/span&gt;++;&lt;/div&gt;&lt;/div&gt;" style="rounded=0;whiteSpace=wrap;html=1;" vertex="1" parent="Tt6S_BPCqx_ux6isXb5D-1">
                    <mxGeometry x="445" y="445" width="350" height="60" as="geometry"/>
                </mxCell>
                <mxCell id="csNZ4v3LROHq9j_BPD8I-6" value="yes" style="text;html=1;align=center;verticalAlign=middle;resizable=0;points=[];autosize=1;strokeColor=none;fillColor=none;" vertex="1" parent="Tt6S_BPCqx_ux6isXb5D-1">
                    <mxGeometry x="395" y="440" width="30" height="20" as="geometry"/>
                </mxCell>
                <mxCell id="06y1v9VkVust2DtCcpta-0" style="edgeStyle=orthogonalEdgeStyle;rounded=0;sketch=0;jumpStyle=sharp;html=1;exitX=1;exitY=0.5;exitDx=0;exitDy=0;entryX=0;entryY=0.5;entryDx=0;entryDy=0;strokeColor=default;" edge="1" parent="Tt6S_BPCqx_ux6isXb5D-1" source="csNZ4v3LROHq9j_BPD8I-8" target="csNZ4v3LROHq9j_BPD8I-12">
                    <mxGeometry relative="1" as="geometry"/>
                </mxCell>
                <mxCell id="csNZ4v3LROHq9j_BPD8I-8" value="&lt;div style=&quot;color: rgb(212 , 212 , 212) ; background-color: rgb(30 , 30 , 30) ; font-family: &amp;#34;consolas&amp;#34; , &amp;#34;courier new&amp;#34; , monospace ; font-size: 14px ; line-height: 19px&quot;&gt;&lt;span style=&quot;color: #c586c0&quot;&gt;return&lt;/span&gt; &lt;span style=&quot;color: #9cdcfe&quot;&gt;searchableArray&lt;/span&gt;;&lt;/div&gt;" style="shape=parallelogram;perimeter=parallelogramPerimeter;whiteSpace=wrap;html=1;fixedSize=1;" vertex="1" parent="Tt6S_BPCqx_ux6isXb5D-1">
                    <mxGeometry x="470" y="300" width="210" height="60" as="geometry"/>
                </mxCell>
                <mxCell id="csNZ4v3LROHq9j_BPD8I-12" value="end" style="ellipse;whiteSpace=wrap;html=1;" vertex="1" parent="Tt6S_BPCqx_ux6isXb5D-1">
                    <mxGeometry x="690" y="290" width="120" height="80" as="geometry"/>
                </mxCell>
            </root>
        </mxGraphModel>
    </diagram>
</mxfile>